<?xml version="1.0" standalone="no"?>
<!DOCTYPE svg PUBLIC "-//W3C//DTD SVG 20010904//EN"
 "http://www.w3.org/TR/2001/REC-SVG-20010904/DTD/svg10.dtd">
<svg version="1.0" xmlns="http://www.w3.org/2000/svg"
 width="512.000000pt" height="512.000000pt" viewBox="0 0 512.000000 512.000000"
 preserveAspectRatio="xMidYMid meet">
<metadata>
Created by potrace 1.16, written by Peter Selinger 2001-2019
</metadata>
<g transform="translate(0.000000,512.000000) scale(0.100000,-0.100000)"
fill="#000000" stroke="none">
<path d="M2445 4113 c-148 -11 -302 -51 -408 -105 -52 -26 -78 -51 -65 -63 2
-3 29 5 59 16 90 34 288 86 384 99 90 13 139 35 113 52 -7 4 -20 7 -28 6 -8
-1 -33 -3 -55 -5z"/>
<path d="M2045 4091 c-214 -38 -419 -115 -588 -221 -98 -62 -134 -98 -123
-125 9 -24 40 -14 134 41 163 97 432 216 657 290 85 28 94 33 60 33 -22 0 -85
-9 -140 -18z"/>
<path d="M3021 3976 c-10 -12 -2 -17 46 -30 185 -52 412 -165 578 -288 91 -68
256 -232 284 -283 18 -34 21 -36 16 -12 -30 145 -137 270 -357 414 -128 84
-281 156 -398 188 -108 28 -152 31 -169 11z"/>
<path d="M2365 3945 c-44 -9 -123 -29 -176 -45 -142 -44 -326 -140 -269 -140
6 0 47 18 91 41 319 160 662 180 1004 59 89 -32 240 -104 323 -155 75 -47 44
-18 -40 35 -139 90 -305 159 -465 195 -100 23 -368 28 -468 10z"/>
<path d="M1797 3786 c-71 -30 -174 -90 -254 -150 -69 -52 -234 -221 -278 -285
-29 -43 -29 -44 -10 -57 60 -40 59 -38 41 -72 -9 -17 -12 -33 -7 -37 5 -3 34
32 64 77 119 184 264 335 436 458 120 86 124 113 8 66z"/>
<path d="M2390 3770 c-165 -23 -371 -109 -502 -210 -35 -26 -94 -81 -133 -121
l-70 -72 70 62 c236 210 540 326 855 325 113 -1 155 -6 290 -39 18 -5 21 -4
10 3 -8 5 -53 19 -100 31 -97 25 -313 36 -420 21z"/>
<path d="M3455 3740 c10 -11 20 -20 23 -20 3 0 -3 9 -13 20 -10 11 -20 20 -23
20 -3 0 3 -9 13 -20z"/>
<path d="M3575 3630 c49 -49 92 -90 95 -90 2 0 -36 41 -85 90 -49 50 -92 90
-95 90 -2 0 36 -40 85 -90z"/>
<path d="M2407 3669 c-108 -11 -215 -42 -323 -93 -125 -59 -203 -114 -307
-215 -146 -141 -227 -280 -285 -489 -25 -90 -27 -111 -27 -287 0 -176 2 -197
27 -287 50 -178 152 -345 289 -473 30 -27 41 -35 25 -18 -40 45 -12 44 46 0
81 -62 163 -114 235 -151 106 -53 103 -44 -3 13 -133 70 -179 104 -280 205
-150 152 -232 294 -280 492 -36 143 -38 349 -6 490 76 337 299 597 627 730
143 59 253 77 435 71 173 -5 269 -27 408 -92 39 -19 72 -32 72 -29 0 11 -168
83 -240 103 -79 22 -228 42 -295 40 -22 -1 -75 -5 -118 -10z"/>
<path d="M3166 3659 c5 -8 9 -23 9 -34 0 -12 22 -35 65 -64 36 -25 114 -94
174 -153 59 -59 115 -108 122 -108 8 0 17 7 21 16 12 31 -241 264 -368 338
-21 12 -29 14 -23 5z"/>
<path d="M2439 3600 c-94 -16 -207 -52 -294 -94 -102 -50 -245 -150 -245 -172
0 -35 34 -25 121 35 159 111 342 177 512 186 88 5 97 8 97 36 0 17 -7 19 -72
18 -40 -1 -94 -5 -119 -9z"/>
<path d="M3801 3450 c38 -52 92 -140 119 -195 59 -119 67 -119 11 0 -44 94
-100 180 -160 245 -25 28 -14 9 30 -50z"/>
<path d="M2592 3520 c-14 -6 -22 -17 -20 -27 2 -13 23 -20 92 -30 49 -7 92
-15 95 -19 3 -3 -19 -3 -49 2 -30 4 -95 7 -145 6 -315 -4 -627 -231 -768 -556
-94 -217 -109 -420 -45 -611 28 -86 37 -87 19 -1 -13 64 -13 100 -3 253 21
323 79 473 249 646 162 165 350 247 566 247 124 0 244 -24 335 -65 39 -19 72
-36 72 -39 0 -4 -17 1 -37 10 -91 40 -195 64 -272 62 -42 0 -60 -3 -41 -5 188
-19 379 -100 545 -230 65 -51 172 -182 208 -256 68 -139 74 -346 15 -527 -43
-134 -99 -227 -216 -358 -68 -77 -84 -112 -51 -112 18 0 165 148 220 220 113
149 189 363 189 530 0 307 -208 610 -528 770 -131 66 -369 115 -430 90z m205
-86 c-3 -3 -12 -4 -19 -1 -8 3 -5 6 6 6 11 1 17 -2 13 -5z"/>
<path d="M1629 3438 c-77 -89 -133 -171 -172 -250 -142 -287 -178 -637 -96
-923 22 -75 106 -254 139 -295 11 -14 -3 19 -30 72 -157 301 -181 578 -81 928
50 175 123 304 259 459 30 34 48 61 40 61 -8 0 -35 -24 -59 -52z"/>
<path d="M3280 3346 c36 -39 80 -89 99 -111 30 -36 31 -37 10 -5 -13 19 -57
69 -99 111 l-75 75 65 -70z"/>
<path d="M1664 3338 l-19 -23 23 19 c21 18 27 26 19 26 -2 0 -12 -10 -23 -22z"/>
<path d="M3460 3308 c0 -4 20 -36 45 -72 213 -305 254 -738 97 -1041 -14 -27
-25 -53 -24 -57 1 -5 -2 -8 -6 -8 -5 0 -33 -37 -62 -82 -66 -101 -227 -264
-332 -336 -154 -105 -346 -174 -488 -175 -52 0 -75 -3 -60 -8 20 -6 16 -7 -20
-8 -25 -1 -52 -6 -60 -11 -20 -13 51 -13 160 0 255 32 486 154 685 362 128
133 157 171 202 254 170 320 161 725 -23 1034 -46 77 -113 164 -114 148z m91
-1231 c-10 -9 -11 -8 -5 6 3 10 9 15 12 12 3 -3 0 -11 -7 -18z"/>
<path d="M2670 3289 c0 -29 19 -41 91 -55 109 -22 221 -80 298 -156 86 -84
125 -146 167 -264 44 -122 59 -141 50 -61 -19 171 -157 374 -316 464 -101 57
-290 104 -290 72z"/>
<path d="M1837 3202 c-118 -143 -177 -279 -198 -456 -12 -96 -5 -172 11 -131
5 11 9 38 9 61 3 145 123 404 240 518 33 32 38 43 30 58 -16 30 -34 21 -92
-50z"/>
<path d="M3667 3234 c-3 -4 18 -52 48 -108 61 -116 105 -234 131 -356 26 -119
26 -328 0 -430 -58 -230 -178 -439 -376 -655 -161 -176 -215 -256 -142 -209
193 123 381 311 511 513 38 60 40 65 25 82 -15 17 -15 24 9 101 31 100 44 169
53 285 16 214 -63 509 -187 698 -48 74 -62 89 -72 79z"/>
<path d="M2144 3172 c-191 -150 -306 -380 -291 -581 6 -79 36 -192 61 -226 11
-16 17 -17 29 -7 13 11 13 19 1 65 -65 242 28 516 232 679 65 53 69 65 31 97
-12 9 -24 4 -63 -27z"/>
<path d="M2790 3079 c164 -90 260 -281 231 -456 -20 -119 -90 -233 -142 -233
-33 0 -32 22 4 58 60 62 82 123 82 228 0 84 -2 95 -38 166 -69 140 -188 220
-331 222 -55 1 -71 -2 -80 -16 -19 -31 5 -52 68 -60 118 -15 212 -79 266 -180
32 -58 35 -70 35 -153 0 -79 -4 -97 -28 -148 -34 -69 -126 -171 -176 -196 -51
-26 -104 -32 -169 -20 -73 14 -116 36 -181 95 -61 55 -88 102 -113 199 l-18
70 4 -67 c3 -50 11 -80 34 -122 l30 -56 -31 -24 c-27 -22 -30 -27 -20 -49 16
-34 123 -112 191 -137 122 -46 232 -46 357 1 64 24 159 91 202 143 151 183
134 456 -39 642 -49 52 -156 124 -184 124 -5 0 16 -14 46 -31z"/>
<path d="M1656 3035 c-9 -26 -7 -32 5 -12 6 10 9 21 6 23 -2 3 -7 -2 -11 -11z"/>
<path d="M1636 2985 c-9 -26 -7 -32 5 -12 6 10 9 21 6 23 -2 3 -7 -2 -11 -11z"/>
<path d="M2336 2927 c-62 -76 -81 -130 -81 -232 0 -78 4 -97 28 -147 15 -31
47 -75 70 -99 165 -166 442 -101 482 114 4 22 3 37 -3 37 -5 0 -12 -13 -15
-29 -15 -75 -120 -141 -224 -141 -80 0 -137 26 -193 87 -79 85 -103 180 -75
298 8 38 27 89 41 112 32 56 15 55 -30 0z"/>
<path d="M3351 2796 c0 -76 -33 -263 -63 -356 -28 -88 -79 -184 -133 -250 -45
-54 -52 -74 -37 -97 11 -17 98 73 150 154 21 34 54 106 73 160 33 96 34 102
34 265 0 114 -4 171 -12 179 -8 8 -11 -5 -12 -55z"/>
<path d="M2526 2818 c-21 -29 -21 -111 -1 -128 9 -7 38 -23 65 -36 79 -36 93
-100 28 -123 -44 -16 -91 -4 -125 31 -27 29 -28 32 -28 138 0 125 -12 131 -45
22 -30 -96 -14 -160 54 -220 48 -42 108 -51 170 -24 113 50 113 170 0 233 -63
36 -77 51 -72 81 3 20 8 23 41 22 54 -2 115 -47 156 -117 38 -63 49 -68 31
-11 -16 49 -75 113 -125 135 -58 27 -130 25 -149 -3z"/>
<path d="M3200 2670 c0 -5 5 -10 11 -10 5 0 7 5 4 10 -3 6 -8 10 -11 10 -2 0
-4 -4 -4 -10z"/>
<path d="M1351 2553 c-2 -164 28 -285 115 -471 24 -51 64 -122 89 -158 49 -70
55 -84 28 -63 -10 7 -3 -3 16 -24 19 -20 37 -34 41 -32 4 3 36 -29 70 -70 58
-70 81 -92 64 -62 -4 6 13 -7 39 -31 136 -123 399 -252 617 -301 38 -9 28 -10
-60 -7 -75 3 -131 12 -195 31 -123 36 -293 120 -390 192 -170 127 -369 338
-452 480 -25 43 -42 69 -39 58 20 -62 174 -309 236 -379 180 -204 403 -351
659 -436 167 -55 291 -73 467 -68 163 5 180 11 147 55 -19 26 -26 28 -94 28
-66 0 -74 2 -77 20 -6 28 -20 35 -72 35 -153 1 -417 101 -615 233 -336 224
-554 589 -584 981 l-8 101 -2 -112z m274 -723 c10 -11 16 -20 13 -20 -3 0 -13
9 -23 20 -10 11 -16 20 -13 20 3 0 13 -9 23 -20z"/>
<path d="M1592 2510 c0 -19 2 -27 5 -17 2 9 2 25 0 35 -3 9 -5 1 -5 -18z"/>
<path d="M1601 2444 c-2 -60 70 -295 101 -329 6 -5 2 8 -7 30 -38 91 -77 224
-88 300 l-4 30 -2 -31z"/>
<path d="M3076 2401 c-4 -7 -5 -15 -2 -18 9 -9 19 4 14 18 -4 11 -6 11 -12 0z"/>
<path d="M1903 2298 c-13 -6 -23 -16 -23 -22 0 -30 103 -166 125 -166 17 0 35
30 35 57 0 10 -18 46 -40 81 -41 64 -54 71 -97 50z"/>
<path d="M2151 2245 c-17 -20 -31 -43 -31 -52 0 -28 128 -143 194 -174 195
-91 470 -40 658 122 47 40 45 55 -12 79 -27 11 -32 10 -71 -24 -55 -47 -188
-112 -269 -131 -117 -27 -224 -14 -314 39 -54 32 -76 64 -76 114 0 69 -32 80
-79 27z"/>
<path d="M1240 2237 c0 -13 42 -118 46 -115 2 2 -6 29 -17 59 -20 52 -29 70
-29 56z"/>
<path d="M1710 2091 c0 -6 4 -13 10 -16 6 -3 7 1 4 9 -7 18 -14 21 -14 7z"/>
<path d="M2970 2079 c-37 -31 -126 -74 -201 -97 -115 -36 -240 -38 -386 -6
-59 12 -35 -13 30 -32 81 -24 237 -24 326 0 98 26 271 121 271 148 0 13 -13 9
-40 -13z"/>
<path d="M2035 2070 c10 -11 20 -20 23 -20 3 0 -3 9 -13 20 -10 11 -20 20 -23
20 -3 0 3 -9 13 -20z"/>
<path d="M1910 2063 c0 -14 88 -93 166 -149 74 -53 156 -92 244 -115 54 -14
68 -15 85 -4 43 27 30 41 -57 59 -91 18 -187 59 -257 110 -37 26 -50 31 -64
22 -14 -9 -26 -2 -67 39 -27 27 -50 44 -50 38z"/>
<path d="M1740 2036 c0 -3 9 -10 20 -16 11 -6 20 -8 20 -6 0 3 -9 10 -20 16
-11 6 -20 8 -20 6z"/>
<path d="M1780 1996 c0 -2 8 -10 18 -17 15 -13 16 -12 3 4 -13 16 -21 21 -21
13z"/>
<path d="M1840 1920 c17 -22 37 -43 43 -47 6 -4 -6 14 -27 40 -21 26 -40 47
-43 47 -3 0 10 -18 27 -40z"/>
<path d="M3020 1904 c-146 -115 -458 -195 -649 -165 -125 19 -258 71 -391 152
l-35 21 30 -27 c85 -74 249 -149 398 -179 104 -22 260 -20 377 4 169 34 347
141 338 203 -5 31 -19 29 -68 -9z"/>
<path d="M1870 1745 c13 -14 26 -25 28 -25 3 0 -5 11 -18 25 -13 14 -26 25
-28 25 -3 0 5 -11 18 -25z"/>
<path d="M2930 1620 c-9 -6 -10 -10 -3 -10 6 0 15 5 18 10 8 12 4 12 -15 0z"/>
<path d="M2190 1610 c8 -5 20 -10 25 -10 6 0 3 5 -5 10 -8 5 -19 10 -25 10 -5
0 -3 -5 5 -10z"/>
<path d="M2835 1584 c-33 -14 -46 -22 -30 -18 31 6 118 43 100 42 -5 0 -37
-11 -70 -24z"/>
<path d="M2298 1573 c7 -3 16 -2 19 1 4 3 -2 6 -13 5 -11 0 -14 -3 -6 -6z"/>
<path d="M2338 1563 c7 -3 16 -2 19 1 4 3 -2 6 -13 5 -11 0 -14 -3 -6 -6z"/>
<path d="M2748 1553 c7 -3 16 -2 19 1 4 3 -2 6 -13 5 -11 0 -14 -3 -6 -6z"/>
<path d="M2688 1543 c6 -2 18 -2 25 0 6 3 1 5 -13 5 -14 0 -19 -2 -12 -5z"/>
<path d="M2955 1220 c-82 -10 -156 -19 -162 -19 -7 -1 -13 -7 -13 -15 0 -33
24 -34 160 -6 74 15 160 35 190 43 55 15 55 15 15 15 -22 0 -107 -8 -190 -18z"/>
<path d="M2409 999 c-18 -11 287 -10 321 1 15 5 -41 8 -141 8 -92 0 -173 -4
-180 -9z"/>
</g>
</svg>